<?xml version="1.0" standalone="no"?>
<!DOCTYPE svg PUBLIC "-//W3C//DTD SVG 20010904//EN"
 "http://www.w3.org/TR/2001/REC-SVG-20010904/DTD/svg10.dtd">
<svg version="1.0" xmlns="http://www.w3.org/2000/svg"
 width="1600.000000pt" height="900.000000pt" viewBox="0 0 1600.000000 900.000000"
 preserveAspectRatio="xMidYMid meet">

<g transform="translate(0.000000,900.000000) scale(0.100000,-0.100000)"
fill="#000000" stroke="none">
<path d="M4214 6478 c-2 -3 151 -319 341 -702 190 -383 345 -700 345 -706 0
-5 3 -10 8 -10 4 0 102 192 218 428 116 235 273 551 348 702 75 152 136 280
136 285 0 6 -68 9 -178 7 l-178 -3 -31 -67 c-63 -137 -229 -490 -269 -572
l-42 -85 -87 180 c-48 99 -103 214 -122 255 -18 41 -57 123 -85 182 l-51 107
-174 3 c-96 2 -177 0 -179 -4z"/>
<path d="M8405 6481 c-146 -26 -291 -160 -328 -303 -18 -69 -14 -186 8 -247
31 -90 146 -210 234 -247 20 -9 79 -29 131 -46 102 -33 130 -49 154 -89 25
-42 6 -128 -33 -149 -59 -31 -137 -18 -183 31 -28 28 -58 82 -58 103 0 16 -6
18 -42 13 -24 -3 -83 -11 -133 -17 -159 -19 -157 -18 -151 -54 18 -108 81
-230 157 -300 93 -87 185 -118 339 -115 142 3 220 33 318 124 172 159 173 441
3 615 -64 66 -121 97 -263 145 -55 19 -111 42 -125 50 -30 20 -44 56 -37 94
10 48 38 66 101 66 53 0 57 -2 99 -48 l44 -49 62 35 c35 19 86 47 113 63 28
15 62 35 77 44 l28 17 -29 44 c-54 85 -141 158 -229 194 -65 27 -188 39 -257
26z"/>
<path d="M9025 6477 c-2 -7 -5 -81 -7 -165 l-3 -152 112 0 c61 0 118 -3 127
-6 14 -6 16 -64 16 -555 l0 -549 165 0 165 0 2 552 c3 545 3 553 23 554 11 0
71 1 133 2 l112 2 0 160 0 160 -382 1 c-211 0 -400 2 -421 4 -24 3 -39 0 -42
-8z"/>
<path d="M9950 6482 c-7 -3 -10 -167 -10 -483 0 -523 5 -579 57 -688 27 -57
146 -191 169 -191 8 0 14 -3 14 -8 0 -4 19 -17 43 -29 236 -120 521 -44 665
179 47 74 68 139 82 263 10 87 14 923 4 948 -3 9 -45 11 -164 9 l-160 -3 0
-447 c0 -246 -4 -473 -10 -505 -11 -68 -50 -130 -98 -152 -90 -44 -211 -5
-251 80 -21 44 -21 56 -21 535 0 384 -3 490 -12 492 -25 3 -298 3 -308 0z"/>
<path d="M5767 6348 c-66 -136 -463 -939 -557 -1128 -28 -58 -58 -120 -65
-137 l-14 -33 180 0 179 0 32 68 c17 37 49 105 72 152 l41 85 210 0 210 0 75
-152 75 -153 183 0 183 0 -69 133 c-38 72 -144 281 -237 462 -92 182 -171 335
-175 340 -4 6 -62 119 -129 253 -68 133 -124 242 -126 242 -2 0 -32 -60 -68
-132z m61 -499 l-3 -84 -87 -3 c-83 -3 -88 -2 -88 18 0 39 27 86 69 119 43 34
91 53 104 41 4 -4 7 -45 5 -91z m123 68 c51 -31 89 -80 96 -122 l6 -35 -92 0
-91 0 0 90 c0 87 1 90 23 90 12 0 38 -10 58 -23z m-121 -286 c0 -84 -1 -89
-22 -95 -30 -8 -97 -8 -137 0 l-31 7 0 82 c0 45 3 85 7 88 3 4 46 7 95 7 l88
0 0 -89z m228 -3 l3 -86 -28 -6 c-15 -3 -57 -4 -93 -3 l-65 2 -3 93 -3 93 93
-3 93 -3 3 -87z"/>
<path d="M7276 6368 c-72 -151 -514 -1048 -576 -1170 -28 -53 -55 -109 -60
-123 l-10 -25 180 0 180 0 31 68 c17 37 50 105 73 152 l41 85 210 0 210 0 75
-152 75 -152 183 -1 183 0 -125 243 c-129 252 -180 350 -193 370 -4 7 -8 14
-8 17 -1 6 -95 192 -193 380 -41 80 -106 207 -145 283 -38 75 -71 137 -73 137
-2 0 -28 -51 -58 -112z m54 -519 l0 -89 -91 0 -91 0 7 38 c4 20 17 51 31 68
24 33 120 88 135 78 5 -3 9 -45 9 -95z m124 70 c45 -26 86 -81 93 -124 l6 -35
-92 0 -91 0 0 90 c0 89 0 90 24 90 14 0 41 -9 60 -21z m-126 -291 l-3 -92 -60
-3 c-33 -2 -75 -1 -92 2 l-33 6 0 83 c0 45 3 86 7 89 3 4 46 7 95 7 l89 0 -3
-92z m230 1 l3 -87 -73 -4 c-122 -7 -118 -10 -118 94 l0 89 93 -3 92 -3 3 -86z"/>
<path d="M4230 4756 c-85 -19 -150 -55 -213 -118 -86 -85 -110 -145 -114 -283
-3 -104 -1 -114 26 -171 52 -111 169 -210 293 -249 29 -9 62 -20 73 -25 11 -5
34 -11 50 -15 17 -3 47 -23 68 -43 42 -41 48 -80 22 -137 -16 -33 -63 -55
-117 -55 -41 0 -111 52 -135 102 -13 25 -23 50 -23 57 0 14 9 15 -167 -11
l-153 -22 0 -27 c0 -16 7 -50 16 -76 49 -152 122 -241 243 -301 l76 -37 145 0
c144 0 145 1 211 34 175 88 259 233 247 431 -7 105 -47 190 -128 270 -68 67
-135 104 -260 144 -140 45 -160 62 -160 128 0 50 23 76 74 83 56 9 109 -15
139 -62 14 -21 27 -31 37 -27 25 9 270 146 270 151 0 13 -64 94 -110 140 -60
61 -150 107 -234 122 -73 13 -105 13 -176 -3z"/>
<path d="M5230 4335 c-342 -693 -490 -995 -490 -1000 0 -3 81 -4 180 -3 l180
3 69 145 69 145 214 3 214 2 73 -150 72 -150 180 0 c98 0 179 2 179 6 0 3 -56
114 -124 247 -68 133 -171 334 -228 447 -58 113 -158 309 -224 435 -65 127
-125 246 -135 265 l-17 35 -212 -430z m425 -137 c9 -8 10 -383 1 -397 -4 -6
-12 -9 -17 -6 -14 9 -11 -5 6 -21 19 -20 19 -29 -2 -49 -15 -16 -18 -16 -28
-1 -17 23 -330 24 -339 1 -6 -17 -32 -10 -40 12 -4 9 1 24 10 35 15 16 19 17
34 3 13 -12 48 -15 173 -15 86 0 157 2 157 4 0 2 2 10 5 18 4 10 -24 13 -147
11 -84 -1 -169 2 -189 6 -30 7 -38 5 -48 -10 -14 -23 -25 -24 -45 -3 -20 20
-20 34 -1 34 13 0 15 25 15 165 0 144 -2 165 -17 174 -14 8 -15 12 -4 25 29
35 78 5 54 -33 -7 -11 -10 -75 -8 -167 4 -178 2 -164 18 -164 10 0 12 41 9
187 -1 114 1 189 7 193 14 8 388 7 396 -2z"/>
<path d="M5585 3950 c-3 -5 -1 -10 4 -10 6 0 11 5 11 10 0 6 -2 10 -4 10 -3 0
-8 -4 -11 -10z"/>
<path d="M5451 3864 c0 -11 3 -14 6 -6 3 7 2 16 -1 19 -3 4 -6 -2 -5 -13z"/>
<path d="M6759 4394 c-100 -203 -257 -523 -350 -712 -93 -188 -169 -345 -169
-347 0 -3 81 -5 180 -5 l180 0 10 25 c9 23 102 224 119 255 7 13 42 15 224 15
l216 0 71 -145 71 -145 179 -3 c99 -1 180 0 180 3 0 4 -66 135 -147 293 -203
398 -274 536 -435 852 -78 151 -142 277 -144 279 -2 2 -85 -162 -185 -365z
m109 -239 c-4 -71 1 -71 35 -5 12 24 27 45 32 47 6 2 32 -10 58 -27 55 -35 59
-55 18 -99 -24 -25 -26 -33 -15 -42 9 -7 14 -8 14 -1 0 11 64 52 81 52 11 0
69 -88 69 -106 0 -6 -28 -26 -62 -42 l-63 -31 68 1 c37 1 69 -1 71 -3 4 -4 9
-89 7 -116 -1 -9 -18 -13 -51 -13 l-50 0 -2 38 -1 37 -4 -37 -4 -37 -170 0
-169 0 0 64 c0 70 -1 69 63 65 15 -1 27 3 27 9 0 7 -16 9 -44 6 l-44 -6 -1
156 0 155 70 0 71 0 -4 -65z"/>
<path d="M6820 4015 c0 -8 4 -15 10 -15 5 0 7 7 4 15 -4 8 -8 15 -10 15 -2 0
-4 -7 -4 -15z"/>
<path d="M6888 3973 c7 -3 16 -2 19 1 4 3 -2 6 -13 5 -11 0 -14 -3 -6 -6z"/>
<path d="M6905 3909 c-22 -5 -12 -7 39 -8 38 0 67 1 65 3 -10 8 -77 12 -104 5z"/>
<path d="M6838 3903 c6 -2 18 -2 25 0 6 3 1 5 -13 5 -14 0 -19 -2 -12 -5z"/>
<path d="M7750 4545 l0 -215 53 0 c88 0 122 15 146 62 24 49 18 64 -53 148
-25 30 -44 56 -41 58 3 3 27 -13 53 -35 27 -23 63 -50 81 -61 l34 -20 43 20
c47 23 45 17 60 186 l6 72 -191 0 -191 0 0 -215z"/>
<path d="M8175 4729 c4 -18 8 -55 10 -83 4 -100 13 -121 60 -144 l43 -21 38
26 c22 14 44 31 49 37 6 6 27 24 49 40 46 34 38 13 -19 -49 -20 -22 -43 -55
-52 -74 -17 -34 -16 -39 23 -109 3 -5 49 -14 93 -17 24 -2 72 -7 107 -11 l64
-6 -6 33 c-29 164 -124 289 -274 362 -46 22 -98 39 -134 43 l-58 7 7 -34z"/>
<path d="M8780 4600 l0 -159 128 -3 127 -3 3 -553 2 -552 163 2 162 3 2 535
c1 294 2 543 3 552 0 15 15 18 132 20 l133 3 -1 155 0 155 -427 3 -427 2 0
-160z"/>
<path d="M9700 4045 l0 -715 165 0 165 0 2 270 3 270 162 3 c128 2 164 -1 168
-11 3 -8 5 -130 5 -273 l0 -259 165 0 165 0 0 715 0 715 -165 0 -165 0 0 -267
c0 -148 -4 -274 -8 -281 -7 -9 -47 -12 -168 -10 l-159 3 -3 278 -2 277 -165 0
-165 0 0 -715z"/>
<path d="M11375 4597 c-118 -243 -536 -1090 -584 -1184 l-41 -83 183 0 183 0
64 141 c35 77 69 144 76 150 7 5 96 8 219 7 l208 -3 74 -147 74 -148 179 0
179 0 -17 38 c-24 50 -132 264 -197 387 -29 55 -105 204 -170 330 -65 127
-167 327 -228 445 -60 118 -112 218 -116 222 -3 4 -42 -66 -86 -155z m15 -368
c15 -26 5 -37 -20 -21 -11 7 -28 12 -39 12 -39 0 -43 -20 -39 -224 l3 -196
-48 0 c-35 0 -47 4 -45 13 3 6 17 13 31 15 l27 3 0 190 c0 176 1 190 20 209
28 28 95 28 110 -1z m53 -56 c8 -10 17 -29 19 -43 3 -22 -1 -26 -37 -30 -64
-8 -85 -1 -85 28 0 54 68 83 103 45z m222 -133 c11 -13 16 -30 13 -49 -3 -23
0 -32 13 -36 30 -10 41 -105 15 -140 -13 -18 -28 -19 -190 -18 -125 0 -180 4
-191 13 -10 9 -15 31 -15 72 0 51 3 61 19 65 16 4 20 13 18 45 -2 61 12 67
168 67 118 0 135 -2 150 -19z"/>
<path d="M11463 3902 c-29 -2 -53 -6 -53 -10 0 -6 97 -6 175 1 49 4 -63 12
-122 9z"/>
<path d="M8066 4446 c-88 -53 -113 -165 -56 -244 40 -55 100 -86 157 -79 59 6
116 46 142 99 40 83 20 155 -58 216 -55 41 -125 45 -185 8z m127 -168 c14 -43
23 -78 21 -78 -3 0 -16 7 -30 17 -24 15 -28 15 -61 -1 -26 -12 -34 -13 -31 -4
3 7 13 38 23 68 10 30 22 68 28 84 12 34 10 38 50 -86z"/>
<path d="M8590 4279 c-25 -4 -67 -8 -95 -8 -89 -2 -118 -15 -138 -65 l-18 -44
25 -39 c14 -21 40 -55 58 -75 43 -52 31 -57 -23 -10 -24 21 -58 47 -75 57 -31
17 -33 17 -78 -1 -43 -18 -46 -22 -54 -69 -5 -27 -9 -62 -10 -77 0 -39 -23
-200 -28 -195 -8 8 -25 114 -30 187 -7 111 -16 132 -67 153 -39 16 -46 16 -74
2 -17 -8 -41 -26 -54 -38 -13 -13 -40 -34 -59 -47 l-35 -25 35 44 c98 120 102
131 72 191 -20 39 -41 48 -129 49 l-63 1 0 -470 0 -470 165 0 165 0 0 191 c0
166 2 190 14 179 16 -12 65 -90 165 -262 l63 -108 189 0 c161 0 189 2 189 15
0 8 -4 15 -10 15 -5 0 -10 5 -10 10 0 6 -15 34 -34 63 -18 28 -81 133 -140
231 l-107 179 77 70 c84 78 112 117 138 192 15 44 35 187 25 184 -2 -1 -24 -5
-49 -10z"/>
<path d="M7276 2884 c-9 -23 19 -53 35 -37 15 15 7 47 -12 51 -9 2 -19 -5 -23
-14z"/>
<path d="M4255 2878 c-3 -7 -4 -69 -2 -138 2 -121 3 -125 25 -128 21 -3 22 0
22 70 0 81 9 98 50 98 41 0 50 -17 50 -97 0 -71 1 -73 25 -73 24 0 25 2 25 63
0 109 -49 167 -120 140 l-30 -11 0 44 c0 38 -3 44 -20 44 -11 0 -23 -6 -25
-12z"/>
<path d="M10250 2750 c0 -133 1 -140 20 -140 19 0 20 7 20 140 0 133 -1 140
-20 140 -19 0 -20 -7 -20 -140z"/>
<path d="M3780 2851 c0 -11 11 -55 24 -98 13 -43 28 -94 33 -113 7 -27 14 -35
33 -35 21 0 26 9 50 93 15 51 29 95 32 97 3 3 11 -16 18 -42 32 -125 40 -143
66 -143 14 0 26 6 28 13 2 6 18 59 35 117 37 123 37 130 11 130 -13 0 -21 -9
-25 -27 -4 -16 -16 -63 -28 -107 -17 -62 -23 -73 -28 -55 -4 13 -17 61 -29
107 -20 70 -26 82 -44 82 -18 0 -25 -13 -49 -90 -15 -49 -27 -97 -27 -106 0
-32 -11 -7 -39 92 -19 69 -33 100 -44 102 -11 2 -17 -3 -17 -17z"/>
<path d="M5620 2740 l0 -130 75 0 c60 0 75 3 75 15 0 11 -12 15 -50 15 l-50 0
0 39 c0 40 0 40 42 43 31 2 44 8 46 21 3 14 -4 17 -42 17 -46 0 -46 0 -46 34
0 34 1 35 48 38 34 2 47 7 47 18 0 12 -16 16 -72 18 l-73 3 0 -131z"/>
<path d="M7060 2849 c0 -12 -8 -28 -17 -35 -17 -13 -17 -15 0 -28 13 -10 17
-28 17 -75 0 -81 11 -101 55 -101 40 0 50 26 13 32 -21 3 -23 9 -26 71 -3 66
-3 67 23 67 18 0 25 5 25 20 0 15 -7 20 -25 20 -20 0 -25 5 -25 25 0 18 -5 25
-20 25 -14 0 -20 -7 -20 -21z"/>
<path d="M8237 2863 c-4 -3 -7 -62 -7 -130 0 -116 1 -123 20 -123 18 0 20 7
20 80 0 44 3 80 8 80 4 0 17 -24 30 -52 59 -137 68 -139 121 -26 l39 83 1 -82
c1 -76 3 -83 21 -83 19 0 20 7 20 130 0 124 -1 130 -20 130 -16 0 -31 -22 -69
-102 l-48 -103 -48 103 c-46 97 -65 118 -88 95z"/>
<path d="M9297 2863 c-4 -3 -7 -15 -7 -25 0 -10 -4 -18 -10 -18 -5 0 -10 -9
-10 -20 0 -11 5 -20 10 -20 6 0 10 -31 10 -73 0 -82 9 -97 57 -97 38 0 47 27
11 32 -21 3 -23 9 -26 71 -3 66 -3 67 23 67 18 0 25 5 25 20 0 15 -7 20 -25
20 -20 0 -25 5 -25 25 0 24 -18 34 -33 18z"/>
<path d="M9970 2740 l0 -130 75 0 c60 0 75 3 75 15 0 12 -13 15 -55 15 l-55 0
0 40 0 40 45 0 c38 0 45 3 45 20 0 17 -7 20 -45 20 -45 0 -45 0 -45 34 l0 35
53 3 c38 2 52 7 52 18 0 12 -16 16 -72 18 l-73 3 0 -131z"/>
<path d="M4608 2791 c-29 -26 -33 -35 -33 -80 0 -42 5 -55 28 -78 39 -39 105
-40 144 -1 24 24 25 28 9 34 -10 4 -24 0 -35 -10 -33 -30 -101 -16 -101 21 0
10 20 13 75 13 l75 0 0 36 c0 26 -8 43 -29 65 -40 40 -89 40 -133 0z m110 -23
c26 -26 13 -38 -43 -38 -38 0 -55 4 -55 13 0 22 22 37 55 37 17 0 36 -5 43
-12z"/>
<path d="M4900 2715 c0 -98 1 -105 20 -105 18 0 20 7 20 70 0 68 1 72 30 88
16 9 30 25 30 35 0 21 -9 22 -38 1 -20 -14 -22 -14 -22 0 0 9 -9 16 -20 16
-19 0 -20 -7 -20 -105z"/>
<path d="M5150 2793 c-81 -73 -19 -208 86 -189 17 4 41 17 54 31 21 22 21 25
6 31 -10 4 -24 -1 -35 -10 -32 -29 -101 -16 -101 21 0 8 23 13 78 15 76 3 77
3 80 31 3 21 -5 36 -31 62 -45 45 -92 48 -137 8z m108 -25 c26 -26 13 -38 -43
-38 -59 0 -60 1 -45 31 12 22 68 27 88 7z"/>
<path d="M5880 2813 c0 -5 14 -28 30 -52 17 -24 30 -47 30 -51 0 -3 -13 -27
-30 -53 -25 -40 -27 -47 -12 -47 9 0 29 14 44 32 l26 33 19 -33 c12 -21 26
-32 41 -32 16 0 21 4 16 13 -4 6 -18 29 -31 49 l-23 38 30 48 c34 56 36 62 15
62 -8 0 -25 -16 -37 -35 -13 -19 -25 -35 -28 -35 -3 0 -16 16 -29 35 -21 30
-61 49 -61 28z"/>
<path d="M6174 2807 c-2 -7 -3 -78 -2 -157 3 -137 4 -145 23 -145 18 0 20 8
23 62 l3 62 28 -16 c34 -20 73 -12 107 22 32 32 34 110 4 148 -27 34 -81 45
-114 23 -21 -13 -25 -13 -30 -1 -7 18 -35 20 -42 2z m150 -49 c21 -29 20 -77
-1 -100 -20 -22 -66 -24 -87 -2 -23 22 -21 100 2 113 30 18 70 13 86 -11z"/>
<path d="M6554 2811 c-32 -14 -54 -56 -54 -103 1 -62 44 -108 102 -108 31 0
88 36 88 55 0 19 -34 19 -50 0 -17 -21 -63 -19 -83 3 -10 10 -17 22 -17 25 0
4 36 7 80 7 l80 0 0 33 c0 48 -36 87 -85 93 -22 2 -49 0 -61 -5z m88 -48 c29
-26 21 -33 -42 -33 -33 0 -60 3 -60 7 0 3 7 15 17 25 20 22 61 23 85 1z"/>
<path d="M6830 2715 c0 -98 1 -105 20 -105 18 0 20 7 20 76 0 75 0 76 30 87
18 7 30 19 30 29 0 22 -23 23 -41 2 -11 -14 -13 -14 -21 0 -5 9 -16 16 -23 16
-12 0 -15 -20 -15 -105z"/>
<path d="M7280 2716 c0 -100 1 -106 20 -106 20 0 21 5 18 102 -3 89 -5 103
-20 106 -16 3 -18 -7 -18 -102z"/>
<path d="M7472 2800 c-46 -43 -12 -97 71 -116 19 -4 27 -11 25 -22 -4 -23 -61
-28 -78 -8 -13 17 -50 22 -50 7 0 -19 62 -61 89 -61 41 0 83 36 79 68 -3 27
-19 38 -86 63 -21 8 -32 17 -30 28 4 21 51 26 68 7 14 -18 50 -22 50 -6 0 6
-11 22 -25 35 -30 31 -82 33 -113 5z"/>
<path d="M7778 2804 c-36 -19 -48 -43 -48 -99 0 -37 5 -51 27 -71 31 -29 63
-39 98 -30 26 7 65 39 65 54 0 14 -38 11 -51 -4 -23 -28 -99 -8 -99 27 0 5 36
9 80 9 78 0 80 1 80 25 0 81 -80 128 -152 89z m88 -32 c6 -4 13 -15 17 -24 6
-16 -1 -18 -53 -18 -64 0 -66 1 -50 31 11 19 63 27 86 11z"/>
<path d="M8677 2790 c-31 -27 -37 -39 -37 -72 0 -70 42 -118 103 -118 30 0 87
36 87 55 0 19 -24 19 -40 0 -17 -21 -73 -19 -93 3 -10 10 -17 22 -17 25 0 4
36 7 80 7 l80 0 0 34 c0 49 -34 86 -86 93 -36 5 -45 1 -77 -27z m107 -26 c27
-27 18 -34 -44 -34 -33 0 -60 3 -60 7 0 3 7 15 17 25 20 22 66 24 87 2z"/>
<path d="M8997 2800 c-81 -64 -36 -200 65 -200 26 0 88 43 88 61 0 15 -36 10
-50 -6 -18 -22 -77 -19 -90 4 -5 11 -10 22 -10 25 0 3 36 6 80 6 l80 0 0 31
c0 45 -56 99 -103 99 -19 0 -45 -9 -60 -20z m111 -47 l14 -23 -61 0 c-65 0
-67 1 -50 31 15 28 76 23 97 -8z"/>
<path d="M9535 2808 c-65 -37 -41 -95 48 -119 28 -7 37 -15 35 -27 -4 -24 -55
-28 -79 -7 -20 19 -52 13 -44 -8 8 -19 59 -47 88 -47 38 0 79 37 75 68 -3 27
-19 38 -86 63 -21 8 -32 17 -30 28 4 22 59 27 70 7 10 -18 48 -22 48 -6 0 6
-11 22 -25 35 -26 27 -67 32 -100 13z"/>
<path d="M10468 2804 c-35 -18 -48 -43 -48 -89 0 -67 43 -115 103 -115 30 0
87 36 87 55 0 19 -34 19 -50 0 -24 -29 -100 -9 -100 26 0 5 36 9 80 9 l80 0 0
33 c-1 74 -83 119 -152 81z m96 -40 c27 -27 18 -34 -44 -34 -52 0 -59 2 -53
18 4 9 11 20 17 24 19 13 64 9 80 -8z"/>
<path d="M10764 2786 c-28 -28 -34 -42 -34 -76 0 -34 6 -48 34 -76 37 -37 62
-42 106 -19 30 15 30 15 30 -10 0 -44 -17 -65 -53 -65 -18 0 -42 7 -53 15 -21
16 -54 20 -54 7 0 -5 12 -19 26 -33 20 -19 36 -24 76 -24 42 0 53 4 74 28 23
27 24 35 24 158 0 122 -1 129 -20 129 -11 0 -20 -7 -20 -16 0 -14 -2 -14 -22
0 -37 26 -76 20 -114 -18z m120 -28 c34 -49 9 -118 -42 -118 -35 0 -72 37 -72
72 0 60 81 93 114 46z"/>
<path d="M11118 2805 c-57 -31 -61 -134 -7 -179 35 -29 62 -32 102 -12 15 8
27 11 27 5 0 -5 9 -9 20 -9 19 0 20 7 20 105 0 88 -3 105 -15 105 -9 0 -18 -7
-21 -15 -5 -13 -8 -13 -27 0 -27 19 -64 19 -99 0z m106 -47 c48 -68 -23 -152
-88 -105 -23 16 -27 87 -7 111 20 24 77 21 95 -6z"/>
<path d="M11430 2715 c0 -98 1 -105 20 -105 18 0 20 7 20 74 0 82 11 100 57
94 36 -4 53 -38 53 -110 0 -52 2 -58 21 -58 20 0 21 4 17 81 -3 74 -6 83 -31
105 -30 25 -66 31 -97 14 -13 -7 -21 -7 -25 0 -3 5 -13 10 -21 10 -11 0 -14
-20 -14 -105z"/>
<path d="M11777 2790 c-31 -27 -37 -39 -37 -72 0 -93 72 -143 149 -103 24 12
41 33 41 51 0 11 -39 2 -50 -11 -33 -40 -100 -3 -100 55 0 58 67 95 100 55 13
-16 50 -21 50 -6 0 24 -38 53 -76 58 -36 5 -45 1 -77 -27z"/>
<path d="M12108 2812 c-33 -14 -58 -59 -58 -104 1 -62 44 -108 102 -108 31 0
88 36 88 55 0 19 -34 19 -50 0 -17 -21 -63 -19 -83 3 -10 10 -17 22 -17 25 0
4 36 7 80 7 l80 0 0 33 c0 48 -36 87 -85 92 -22 3 -48 1 -57 -3z m84 -49 c29
-26 21 -33 -42 -33 -33 0 -60 3 -60 7 0 3 7 15 17 25 20 22 61 23 85 1z"/>
</g>
</svg>
